<svg width="26" height="18" viewBox="0 0 26 18" fill="none" xmlns="http://www.w3.org/2000/svg">
<path d="M12.8744 3.23859L12.1606 1.90575C12.0569 1.71323 11.8555 1.5918 11.6364 1.5918H9.31425C8.86404 1.5918 8.57674 2.07458 8.79296 2.47147L12.051 8.43963L10.3005 11.7095L5.04324 1.90575C4.93957 1.71323 4.73817 1.5918 4.51899 1.5918H2.188C1.74076 1.5918 1.45346 2.07162 1.66375 2.46555L4.19318 7.20749M5.06989 8.85133L8.63894 15.5422C9.34979 16.8217 11.1773 16.8424 11.9177 15.5807L13.5912 12.0798C13.6593 11.9583 13.8133 11.9139 13.9348 11.982C13.9762 12.0057 14.0118 12.0383 14.0325 12.0827L15.6734 15.5688C16.4079 16.8395 18.2443 16.8276 18.9581 15.5451L23.5845 6.66547L24.3309 5.3356C24.553 4.93871 24.2657 4.45 23.8126 4.45H16.5886C16.1354 4.45 15.8511 4.93871 16.0703 5.3356L16.9144 6.84911C17.0595 7.10975 17.332 7.26969 17.6312 7.26969H19.6541L17.4179 11.7125L13.7097 4.79654" stroke="#D1D5E0" stroke-width="1.3" stroke-linecap="round" stroke-linejoin="round"/>
</svg>
