<svg width="25" height="25" viewBox="0 0 25 25" fill="none" xmlns="http://www.w3.org/2000/svg">
<path d="M12.4999 0.600006C10.1068 0.600006 7.76734 1.30966 5.77751 2.63922C3.78767 3.96879 2.23679 5.85855 1.32097 8.06954C0.405145 10.2805 0.165525 12.7134 0.632406 15.0606C1.09929 17.4078 2.2517 19.5638 3.94391 21.256C5.63613 22.9482 7.79214 24.1006 10.1393 24.5675C12.4865 25.0344 14.9194 24.7948 17.1304 23.8789C19.3414 22.9631 21.2311 21.4122 22.5607 19.4224C23.8903 17.4326 24.5999 15.0932 24.5999 12.7C24.5936 9.49281 23.3168 6.41877 21.049 4.15094C18.7811 1.88311 15.7071 0.606276 12.4999 0.600006ZM12.4999 23.3765C10.3883 23.3765 8.32411 22.7503 6.56838 21.5772C4.81264 20.404 3.44421 18.7366 2.63613 16.7857C1.82806 14.8348 1.61663 12.6882 2.02858 10.6171C2.44054 8.5461 3.45737 6.64373 4.9505 5.1506C6.44363 3.65747 8.346 2.64063 10.417 2.22868C12.4881 1.81673 14.6347 2.02816 16.5856 2.83623C18.5365 3.64431 20.2039 5.01274 21.3771 6.76848C22.5502 8.52421 23.1764 10.5884 23.1764 12.7C23.1732 15.5306 22.0474 18.2444 20.0458 20.2459C18.0443 22.2475 15.3305 23.3733 12.4999 23.3765ZM7.04304 10.3275C7.04304 10.0928 7.11262 9.86348 7.24297 9.6684C7.37332 9.47332 7.55859 9.32127 7.77535 9.23148C7.99211 9.1417 8.23063 9.1182 8.46075 9.16397C8.69086 9.20975 8.90224 9.32273 9.06814 9.48863C9.23404 9.65454 9.34703 9.86591 9.3928 10.096C9.43857 10.3261 9.41508 10.5647 9.32529 10.7814C9.23551 10.9982 9.08346 11.1835 8.88838 11.3138C8.6933 11.4442 8.46394 11.5137 8.22932 11.5137C7.9147 11.5137 7.61296 11.3887 7.3905 11.1663C7.16803 10.9438 7.04304 10.6421 7.04304 10.3275ZM15.5842 10.3275C15.5842 10.0928 15.6538 9.86348 15.7841 9.6684C15.9145 9.47332 16.0998 9.32127 16.3165 9.23148C16.5333 9.1417 16.7718 9.1182 17.0019 9.16397C17.232 9.20975 17.4434 9.32273 17.6093 9.48863C17.7752 9.65454 17.8882 9.86591 17.934 10.096C17.9797 10.3261 17.9563 10.5647 17.8665 10.7814C17.7767 10.9982 17.6246 11.1835 17.4296 11.3138C17.2345 11.4442 17.0051 11.5137 16.7705 11.5137C16.4559 11.5137 16.1541 11.3887 15.9317 11.1663C15.7092 10.9438 15.5842 10.6421 15.5842 10.3275ZM18.0517 15.9029C17.4876 16.8757 16.6778 17.6831 15.7034 18.2444C14.7291 18.8057 13.6244 19.1012 12.4999 19.1012C11.3754 19.1012 10.2707 18.8057 9.29637 18.2444C8.32201 17.6831 7.51224 16.8757 6.94814 15.9029C6.90135 15.822 6.87099 15.7325 6.85879 15.6398C6.84658 15.5471 6.85277 15.4528 6.87701 15.3625C6.90125 15.2721 6.94306 15.1875 7.00004 15.1133C7.05703 15.0391 7.12808 14.9769 7.20912 14.9302C7.2897 14.8818 7.37919 14.8501 7.47228 14.8371C7.56536 14.824 7.66012 14.8298 7.7509 14.8542C7.84168 14.8785 7.92663 14.9209 8.00068 14.9788C8.07472 15.0367 8.13634 15.1089 8.18187 15.1912C8.61873 15.9501 9.24789 16.5805 10.006 17.0188C10.764 17.4571 11.6242 17.6879 12.4999 17.6879C13.3756 17.6879 14.2358 17.4571 14.9939 17.0188C15.7519 16.5805 16.3811 15.9501 16.8179 15.1912C16.8635 15.1089 16.9251 15.0367 16.9991 14.9788C17.0732 14.9209 17.1581 14.8785 17.2489 14.8542C17.3397 14.8298 17.4345 14.824 17.5275 14.8371C17.6206 14.8501 17.7101 14.8818 17.7907 14.9302C17.8717 14.9769 17.9428 15.0391 17.9998 15.1133C18.0568 15.1875 18.0986 15.2721 18.1228 15.3625C18.147 15.4528 18.1532 15.5471 18.141 15.6398C18.1288 15.7325 18.0985 15.822 18.0517 15.9029Z" fill="#9BA0AD"/>
</svg>
