<svg width="28" height="23" viewBox="0 0 28 23" fill="none" xmlns="http://www.w3.org/2000/svg">
<path d="M23.9505 4.33086H4.44853C2.54369 4.33086 0.999512 5.86795 0.999512 7.76405V18.6343C0.999512 20.5304 2.54369 22.0675 4.44853 22.0675H23.9505C25.8553 22.0675 27.3995 20.5304 27.3995 18.6343V7.76405C27.3995 5.86795 25.8553 4.33086 23.9505 4.33086Z" stroke="#9BA0AD" stroke-width="1.2"/>
<path d="M11.8026 3.50593V2.52307C11.8026 1.77121 11.4477 1.15976 11.0063 1.15976H6.1786C5.74179 1.15976 5.38232 1.77121 5.38232 2.52307V3.50593" stroke="#9BA0AD" stroke-width="1.2" stroke-linecap="round" stroke-linejoin="round"/>
<path d="M14.1927 18.0692C16.8941 18.0692 19.0841 15.8893 19.0841 13.2002C19.0841 10.5112 16.8941 8.33125 14.1927 8.33125C11.4912 8.33125 9.30127 10.5112 9.30127 13.2002C9.30127 15.8893 11.4912 18.0692 14.1927 18.0692Z" stroke="#9BA0AD" stroke-width="1.2" stroke-linecap="round" stroke-linejoin="round"/>
<path d="M20.2412 7.88437H23.8995" stroke="#9BA0AD" stroke-width="1.2" stroke-linecap="round" stroke-linejoin="round"/>
</svg>
