<svg width="16" height="21" viewBox="0 0 16 21" fill="none" xmlns="http://www.w3.org/2000/svg">
<path d="M6.8999 19.5C6.8999 20.0523 7.34762 20.5 7.8999 20.5C8.45219 20.5 8.8999 20.0523 8.8999 19.5L6.8999 19.5ZM8.60701 1.19289C8.21649 0.802369 7.58332 0.802369 7.1928 1.19289L0.828835 7.55685C0.438311 7.94738 0.438311 8.58054 0.828835 8.97107C1.21936 9.36159 1.85252 9.36159 2.24305 8.97107L7.8999 3.31421L13.5568 8.97107C13.9473 9.36159 14.5804 9.36159 14.971 8.97107C15.3615 8.58054 15.3615 7.94738 14.971 7.55685L8.60701 1.19289ZM8.8999 19.5L8.8999 1.9L6.8999 1.9L6.8999 19.5L8.8999 19.5Z" fill="#D1D5E0"/>
</svg>
