<svg width="33" height="33" viewBox="0 0 33 33" fill="none" xmlns="http://www.w3.org/2000/svg">
<g clip-path="url(#clip0_1_374)">
<path d="M10.5 10.5889C17.8855 10.5889 16.6599 18.7756 17.217 21.439C17.9439 24.909 19.7691 24.909 20.1352 24.909C20.6127 24.909 21 25.3494 21 25.8905C21 26.4317 20.6127 26.8721 20.1352 26.8721C17.9333 26.8721 16.0498 24.3572 15.5351 21.8953C14.734 18.0593 15.9649 12.552 10.5 12.552C5.03512 12.552 6.27135 18.0593 5.46488 21.8953C4.72739 25.4289 2.63694 26.8721 0.864831 26.8721C0.387317 26.8721 0 26.4317 0 25.8905C0 25.3494 0.387317 24.909 0.864831 24.909C1.28929 24.909 3.05609 24.909 3.78297 21.439C4.34007 18.7756 3.11445 10.5889 10.5 10.5889Z" fill="#818694"/>
<path d="M14.2688 28.5859C14.7197 28.5859 15.1018 28.9786 15.1336 29.4985C15.1654 30.0397 14.8046 30.5066 14.3324 30.5437C13.892 30.5756 13.8231 30.7029 13.5737 31.1751C13.075 32.0983 12.4277 33.0003 10.507 33.0003C8.58634 33.0003 7.93904 32.0983 7.435 31.1751C7.18033 30.7029 7.11135 30.5756 6.67098 30.5437C6.19347 30.5066 5.83268 30.0397 5.86982 29.4985C5.90165 28.9573 6.3155 28.5541 6.79301 28.5912C8.12474 28.6974 8.59695 29.5728 8.90999 30.1564C9.20711 30.7135 9.39281 31.0478 10.5017 31.0478C11.6106 31.0478 11.791 30.7135 12.0934 30.1617C12.4065 29.5781 12.8787 28.7027 14.2104 28.5965C14.2316 28.5965 14.2528 28.5965 14.2688 28.5965V28.5859Z" fill="#818694"/>
<path d="M1.32197 24.9082H19.5259C20.0936 24.9082 20.5817 25.3486 20.5817 25.8898C20.5817 26.4309 20.465 26.7493 20.1307 26.8713H0.865679C0.685285 26.8713 0.664062 26.4309 0.664062 25.8898C0.664062 25.3486 0.75426 24.9082 1.32197 24.9082Z" fill="#818694"/>
</g>
<path d="M24.4062 0H17.4062C12.7118 0 8.90625 3.80558 8.90625 8.5C8.90625 13.1944 12.7118 17 17.4062 17H24.4062C29.1007 17 32.9062 13.1944 32.9062 8.5C32.9062 3.80558 29.1007 0 24.4062 0Z" fill="url(#paint0_linear_1_374)"/>
<path d="M19.1647 5.08V13H17.8327V6.592L15.9727 7.792L15.3607 6.796L17.9407 5.08H19.1647ZM26.9235 13H21.8235V11.86L23.7795 9.844C24.3715 9.236 24.7875 8.76 25.0275 8.416C25.2675 8.072 25.3875 7.696 25.3875 7.288C25.3875 6.872 25.2715 6.576 25.0395 6.4C24.8075 6.224 24.4275 6.136 23.8995 6.136C23.4035 6.136 22.8555 6.192 22.2555 6.304L21.9555 6.352L21.8715 5.296C22.6475 5.064 23.4515 4.948 24.2835 4.948C25.9395 4.948 26.7675 5.684 26.7675 7.156C26.7675 7.732 26.6395 8.232 26.3835 8.656C26.1355 9.08 25.6875 9.592 25.0395 10.192L23.3475 11.836H26.9235V13Z" fill="#F1F9FF"/>
<defs>
<linearGradient id="paint0_linear_1_374" x1="8.9006" y1="17" x2="17.4576" y2="-2.95436" gradientUnits="userSpaceOnUse">
<stop stop-color="#7800C6"/>
<stop offset="1" stop-color="#7000FF"/>
</linearGradient>
<clipPath id="clip0_1_374">
<rect width="21" height="22.4113" fill="white" transform="translate(0 10.5889)"/>
</clipPath>
</defs>
</svg>
