<svg width="25" height="24" viewBox="0 0 25 24" fill="none" xmlns="http://www.w3.org/2000/svg">
<path d="M9.43942 12.7678H0.769631C0.345294 12.7678 0 12.4225 0 11.9981C0 11.5738 0.345294 11.2285 0.769631 11.2285H9.43942C9.86376 11.2285 10.209 11.5738 10.209 11.9981C10.209 12.4225 9.86376 12.7678 9.43942 12.7678Z" fill="#D1D5E0"/>
<path d="M23.2363 12.7678H14.5665C14.1422 12.7678 13.7969 12.4225 13.7969 11.9981C13.7969 11.5738 14.1422 11.2285 14.5665 11.2285H23.2363C23.6606 11.2285 24.0059 11.5738 24.0059 11.9981C24.0059 12.4225 23.6606 12.7678 23.2363 12.7678Z" fill="#D1D5E0"/>
<path d="M12.004 24.0001C11.5797 24.0001 11.2344 23.6548 11.2344 23.2304V14.5606C11.2344 14.1363 11.5797 13.791 12.004 13.791C12.4283 13.791 12.7736 14.1363 12.7736 14.5606V23.2304C12.7736 23.6548 12.4283 24.0001 12.004 24.0001Z" fill="#D1D5E0"/>
<path d="M12.004 10.2049C11.5797 10.2049 11.2344 9.8596 11.2344 9.43526V0.769631C11.2344 0.345294 11.5797 0 12.004 0C12.4283 0 12.7736 0.345294 12.7736 0.769631V9.43942C12.7736 9.86376 12.4283 10.209 12.004 10.209V10.2049Z" fill="#D1D5E0"/>
<path d="M12.0055 22.4608C6.23954 22.4608 1.54688 17.7681 1.54688 12.0021C1.54688 6.23612 6.23538 1.54346 12.0055 1.54346C17.7757 1.54346 22.4642 6.23612 22.4642 12.0021C22.4642 17.7681 17.7715 22.4608 12.0055 22.4608ZM12.0055 3.07856C7.08406 3.07856 3.08198 7.08064 3.08198 12.0021C3.08198 16.9236 7.08406 20.9257 12.0055 20.9257C16.927 20.9257 20.9291 16.9236 20.9291 12.0021C20.9291 7.08064 16.9228 3.07856 12.0055 3.07856Z" fill="#D1D5E0"/>
<path d="M17.4573 11.5993C17.0426 11.6894 16.6319 11.4253 16.5417 11.0107C15.9965 8.50245 13.513 6.9094 11.0088 7.45377C9.15101 7.85763 7.74178 9.32622 7.41231 11.1987C7.3409 11.6144 6.94251 11.8968 6.52185 11.8223C6.10614 11.7508 5.82369 11.3525 5.89828 10.9318C6.33169 8.4407 8.21018 6.48694 10.6818 5.94964C14.0153 5.22499 17.3163 7.34705 18.0409 10.6805C18.1311 11.0952 17.867 11.506 17.4523 11.5961L17.4573 11.5993Z" fill="#D1D5E0"/>
<path d="M13.3194 18.0464C9.98595 18.7711 6.68501 16.649 5.96036 13.3155C5.87022 12.9009 6.13429 12.4901 6.54894 12.4C6.96359 12.3098 7.37436 12.5739 7.4645 12.9886C8.00975 15.4968 10.4932 17.0899 12.9974 16.5455C14.8552 16.1416 16.2644 14.673 16.5939 12.8006C16.6653 12.3849 17.0637 12.1024 17.4844 12.177C17.9001 12.2484 18.1825 12.6468 18.1079 13.0675C17.6745 15.5586 15.796 17.5123 13.3244 18.0496L13.3194 18.0464Z" fill="#D1D5E0"/>
</svg>
