<svg width="43" height="30" viewBox="0 0 43 30" fill="none" xmlns="http://www.w3.org/2000/svg">
<path d="M40.2564 19.7H33.5044V18.66L36.5924 15.412C37.1257 14.8573 37.5151 14.436 37.7604 14.148C38.0057 13.86 38.2244 13.5187 38.4164 13.124C38.6191 12.7293 38.7204 12.3347 38.7204 11.94C38.7204 11.2573 38.5337 10.7773 38.1604 10.5C37.7871 10.2227 37.2057 10.084 36.4164 10.084C35.7231 10.084 34.9497 10.1747 34.0964 10.356L33.6804 10.436L33.5844 9.41199C34.5977 9.12399 35.6431 8.97999 36.7204 8.97999C37.7977 8.97999 38.6084 9.20932 39.1524 9.66799C39.7071 10.116 39.9844 10.8307 39.9844 11.812C39.9844 12.5587 39.8191 13.2093 39.4884 13.764C39.1577 14.3187 38.5871 14.9853 37.7764 15.764L34.9604 18.628H40.2564V19.7Z" fill="#9BA0AD"/>
<path d="M20.3117 8.39999H5.98853C3.56356 8.39999 1.6001 10.326 1.6001 12.7047V17.1364C1.6001 19.0744 2.90367 20.7105 4.6971 21.2505V26C6.28001 24.479 7.86293 22.9621 9.44584 21.4411H20.3117C22.7366 21.4411 24.7001 19.5151 24.7001 17.1364V12.7047C24.7001 10.326 22.7366 8.39999 20.3117 8.39999V8.39999Z" stroke="#9BA0AD" stroke-width="1.38087" stroke-linecap="round" stroke-linejoin="round"/>
</svg>
