<svg width="22" height="22" viewBox="0 0 22 22" fill="none" xmlns="http://www.w3.org/2000/svg">
<path d="M10.5018 21C4.71035 21 0 16.2897 0 10.5018C0 4.71399 4.71035 0 10.5018 0C16.2933 0 21.0036 4.71035 21.0036 10.5018C21.0036 16.2933 16.2933 21.0036 10.5018 21.0036V21ZM10.5018 1.34321C5.45294 1.34321 1.34321 5.45294 1.34321 10.5018C1.34321 15.5507 5.4493 19.6568 10.4982 19.6568C15.5471 19.6568 19.6531 15.5507 19.6531 10.5018C19.6531 5.45294 15.5507 1.34321 10.5018 1.34321Z" fill="#D1D5E0"/>
<path d="M12.5235 16.2264C9.36408 17.3436 5.88703 15.6818 4.7699 12.5225C3.65277 9.3631 5.3145 5.88605 8.47387 4.76892C11.6332 3.6518 15.1103 5.31352 16.2274 8.47289C16.5556 9.4015 16.6533 10.3999 16.5137 11.3669C16.4613 11.7195 16.1367 11.9639 15.7841 11.9115C15.4315 11.8592 15.1871 11.5345 15.2395 11.1819C15.3512 10.4209 15.2709 9.63191 15.0125 8.90229C14.1328 6.41319 11.3924 5.10406 8.90327 5.9838C6.41417 6.86353 5.10504 9.60398 5.98477 12.0931C6.86451 14.5822 9.60496 15.8913 12.0941 15.0116C13.2705 14.5961 14.2271 13.7513 14.7821 12.6342C14.9392 12.3165 15.3267 12.1873 15.6479 12.3444C15.9656 12.5015 16.0948 12.889 15.9377 13.2102C15.2325 14.6276 14.0211 15.6993 12.5235 16.2299V16.2264Z" fill="#D1D5E0"/>
<path d="M8.39996 16.1983C5.25582 15.039 3.64285 11.5391 4.80218 8.39494C5.9615 5.25081 9.46143 3.63784 12.6056 4.79716C15.7497 5.95648 17.3627 9.45642 16.2033 12.6006C15.8624 13.5246 15.2997 14.3551 14.5744 15.0097C14.3088 15.2475 13.9029 15.228 13.6652 14.9625C13.4274 14.6969 13.4469 14.291 13.7124 14.0532C14.2846 13.5392 14.727 12.8809 14.9944 12.1546C15.9081 9.67778 14.6365 6.91973 12.1596 6.00606C9.6828 5.0924 6.92474 6.36402 6.01108 8.84087C5.09742 11.3177 6.36904 14.0758 8.84588 14.9894C10.0163 15.4216 11.2919 15.3829 12.4327 14.8782C12.7565 14.7342 13.1372 14.8824 13.2838 15.2085C13.4278 15.5323 13.2796 15.9129 12.9536 16.0596C11.5055 16.6993 9.88884 16.7497 8.39773 16.201L8.39996 16.1983Z" fill="#D1D5E0"/>
<path d="M7.22555 6.39742L4.03125 3.20312L3.08145 4.15292L6.27575 7.34722L7.22555 6.39742Z" fill="#D1D5E0"/>
<path d="M14.7276 7.34664L17.9219 4.15234L16.9721 3.20255L13.7778 6.39685L14.7276 7.34664Z" fill="#D1D5E0"/>
<path d="M14.0401 14.917L17.2344 18.1113L18.1842 17.1615L14.9899 13.9672L14.0401 14.917Z" fill="#D1D5E0"/>
<path d="M6.53805 13.9698L3.34375 17.1641L4.29355 18.1139L7.48784 14.9196L6.53805 13.9698Z" fill="#D1D5E0"/>
</svg>
