<svg width="31" height="30" viewBox="0 0 31 30" fill="none" xmlns="http://www.w3.org/2000/svg">
<path d="M15.1536 17.5791C15.4488 10.687 8.93811 10.5934 11.5582 3.99998C10.3021 4.19073 9.352 5.17327 8.83014 6.02984C7.5021 8.21805 10.9752 13.1991 6.86867 13.721C4.43572 14.0305 4.58328 10.9677 5.16992 9.8844C2.32309 11.432 0.735917 14.5272 1.1714 17.5827C1.65727 20.9766 4.57968 23.9134 8.11753 23.9134C12.2348 23.9134 15.0097 21.0234 15.1572 17.5791H15.1536Z" stroke="#9BA0AD" stroke-width="1.17786" stroke-linecap="round" stroke-linejoin="round"/>
<path d="M28.7559 19.7H22.0039V18.66L25.0919 15.412C25.6252 14.8573 26.0146 14.436 26.2599 14.148C26.5052 13.86 26.7239 13.5187 26.9159 13.124C27.1186 12.7293 27.2199 12.3347 27.2199 11.94C27.2199 11.2573 27.0332 10.7773 26.6599 10.5C26.2866 10.2227 25.7052 10.084 24.9159 10.084C24.2226 10.084 23.4492 10.1747 22.5959 10.356L22.1799 10.436L22.0839 9.41199C23.0972 9.12399 24.1426 8.97999 25.2199 8.97999C26.2972 8.97999 27.1079 9.20932 27.6519 9.66799C28.2066 10.116 28.4839 10.8307 28.4839 11.812C28.4839 12.5587 28.3186 13.2093 27.9879 13.764C27.6572 14.3187 27.0866 14.9853 26.2759 15.764L23.4599 18.628H28.7559V19.7Z" fill="#9BA0AD"/>
</svg>
