<svg width="17" height="24" viewBox="0 0 17 24" fill="none" xmlns="http://www.w3.org/2000/svg">
<path d="M8.06656 20.2434C3.61934 20.2434 0 16.6241 0 12.1769C0 11.7525 0.345294 11.4072 0.769631 11.4072C1.19397 11.4072 1.53926 11.7525 1.53926 12.1769C1.53926 15.7796 4.46802 18.7083 8.07072 18.7083C11.6734 18.7083 14.6022 15.7796 14.6022 12.1769C14.6022 11.7525 14.9475 11.4072 15.3718 11.4072C15.7962 11.4072 16.1414 11.7525 16.1414 12.1769C16.1414 16.6241 12.5221 20.2434 8.07488 20.2434H8.06656Z" fill="#D1D5E0"/>
<path d="M8.06447 17.585C5.08163 17.585 2.65625 15.1596 2.65625 12.1768V5.40821C2.65625 2.42537 5.08163 -3.8147e-06 8.06447 -3.8147e-06C11.0473 -3.8147e-06 13.4727 2.42537 13.4727 5.40821C13.4727 5.83255 11.9376 5.83255 11.9376 5.40821C11.9376 3.27405 10.2028 1.5351 8.06447 1.5351C5.92614 1.5351 4.19135 3.27405 4.19135 5.40821V12.1768C4.19135 14.311 5.9303 16.0499 8.06447 16.0499C10.1986 16.0499 11.9376 14.3151 11.9376 12.1768V5.0546C11.9376 4.63026 13.4727 4.94227 13.4727 5.36661V12.1768C13.4727 15.1596 11.0473 17.585 8.06447 17.585Z" fill="#D1D5E0"/>
<path d="M8.06651 23.4427C7.64217 23.4427 7.29688 23.0974 7.29688 22.6731V19.9024C7.29688 19.4781 7.64217 19.1328 8.06651 19.1328C8.49084 19.1328 8.83614 19.4781 8.83614 19.9024V22.6731C8.83614 23.0974 8.49084 23.4427 8.06651 23.4427Z" fill="#D1D5E0"/>
<path d="M13.0271 24.0002H3.11338C2.68904 24.0002 2.34375 23.6549 2.34375 23.2306C2.34375 22.8062 2.68904 22.4609 3.11338 22.4609H13.0271C13.4514 22.4609 13.7967 22.8062 13.7967 23.2306C13.7967 23.6549 13.4514 24.0002 13.0271 24.0002Z" fill="#D1D5E0"/>
<path d="M9.52417 10.5842H6.60789C6.26676 10.5842 5.99219 10.2389 5.99219 9.81455C5.99219 9.39021 6.26676 9.04492 6.60789 9.04492H9.52417C9.8653 9.04492 10.1399 9.39021 10.1399 9.81455C10.1399 10.2389 9.8653 10.5842 9.52417 10.5842Z" fill="#D1D5E0"/>
<path d="M9.52417 7.61738H6.60789C6.26676 7.61738 5.99219 7.27209 5.99219 6.84775C5.99219 6.42341 6.26676 6.07812 6.60789 6.07812H9.52417C9.8653 6.07812 10.1399 6.42341 10.1399 6.84775C10.1399 7.27209 9.8653 7.61738 9.52417 7.61738Z" fill="#D1D5E0"/>
</svg>
