<svg width="18" height="25" viewBox="0 0 18 25" fill="none" xmlns="http://www.w3.org/2000/svg">
<path d="M3.4761 21.1271C3.44288 21.1271 3.41381 21.1271 3.38059 21.1229C2.96122 21.073 2.66226 20.6861 2.71208 20.2659C3.13146 16.8671 5.43596 14.6497 6.95983 13.1812C7.16745 12.9815 7.38336 12.7735 7.57437 12.578C7.30862 12.4615 7.07194 12.3283 6.86848 12.2119C6.72315 12.1287 6.51969 12.0163 6.44495 11.9955C6.19582 11.9955 5.36952 12.4864 5.01658 12.6986C4.58475 12.9565 4.36468 13.0813 4.14461 13.1354C3.40136 13.3185 1.89409 12.3242 1.37091 11.6294C0.785439 10.8473 1.03457 10.2108 1.1716 9.97369C2.22627 8.1349 4.88371 6.54572 5.67679 6.10058C5.8844 5.7012 6.27471 5.02726 6.8934 4.60292C8.88232 3.23422 11.5937 3.80001 11.8553 3.89153C12.254 4.03298 12.5529 4.35747 12.4823 4.77765C12.4117 5.19366 12.4699 5.7012 12.0962 5.50568C11.7598 5.32679 8.88232 4.74853 7.84011 5.73448C7.48717 6.07146 7.10931 6.62892 6.95153 6.97421C6.88094 7.12814 6.76053 7.25711 6.61104 7.33615C5.76399 7.78129 3.41796 9.23318 2.55014 10.6476C2.71208 10.9472 3.46364 11.4464 3.8581 11.592C3.96606 11.5338 4.11139 11.4464 4.23181 11.3757C5.17852 10.814 5.95914 10.3856 6.64426 10.4729C6.98059 10.5145 7.28786 10.6892 7.61174 10.8723C7.9979 11.0886 8.43803 11.3382 8.89893 11.3549C9.14392 11.3632 9.36814 11.488 9.50931 11.6918C9.64634 11.8957 9.67956 12.1536 9.59236 12.3824C9.37644 12.9773 8.80758 13.5265 8.0145 14.2878C6.56537 15.6856 4.57644 17.5993 4.2235 20.4573C4.17367 20.8442 3.84565 21.1313 3.46364 21.1313L3.4761 21.1271Z" fill="#D1D5E0"/>
<path d="M16.1239 21.8967H1.87754C1.45401 21.8967 1.10938 21.5514 1.10938 21.1271C1.10938 20.7027 1.45401 20.3574 1.87754 20.3574H16.1239C16.5474 20.3574 16.8921 20.7027 16.8921 21.1271C16.8921 21.5514 16.5474 21.8967 16.1239 21.8967Z" fill="#D1D5E0"/>
<path d="M17.2318 25.0002H0.768166C0.344637 25.0002 0 24.6549 0 24.2306C0 23.8062 0.344637 23.4609 0.768166 23.4609H17.2318C17.6554 23.4609 18 23.8062 18 24.2306C18 24.6549 17.6554 25.0002 17.2318 25.0002Z" fill="#D1D5E0"/>
<path d="M14.4609 21.127C14.0955 21.127 13.7758 20.8649 13.7052 20.4946C13.3771 18.6642 13.8422 16.763 14.2948 14.9242C14.9425 12.295 15.5529 9.81134 14.1204 7.40676C13.4602 6.296 12.7585 5.69277 11.7702 5.3974C11.5543 5.335 11.3799 5.17691 11.2886 4.97306C10.9149 4.13271 10.4124 3.27156 10.0512 2.82226C10.0014 3.11347 9.78545 3.35892 9.48233 3.43796C9.07126 3.54197 8.65603 3.29236 8.55223 2.8805C8.51486 2.72657 8.34461 1.94446 8.82212 1.40364C8.98406 1.22059 9.34531 0.929382 9.9889 1.00842C10.9771 1.13323 11.9072 2.57681 12.5508 3.95382C13.7342 4.3948 14.656 5.30172 15.4367 6.61217C17.1889 9.55757 16.4415 12.5987 15.7813 15.282C15.3495 17.0417 14.9384 18.7058 15.2124 20.2159C15.2872 20.6319 15.009 21.0313 14.5937 21.1062C14.5481 21.1145 14.5024 21.1187 14.4567 21.1187L14.4609 21.127Z" fill="#D1D5E0"/>
</svg>
