<svg width="115" height="16" viewBox="0 0 115 16" fill="none" xmlns="http://www.w3.org/2000/svg">
<path d="M12.9986 5.05903C13.0077 5.18761 13.0077 5.3162 13.0077 5.44478C13.0154 6.55639 12.8021 7.65846 12.3803 8.68694C11.9584 9.71543 11.3364 10.6498 10.5504 11.4359C9.76432 12.2219 8.82991 12.844 7.80142 13.2658C6.77293 13.6876 5.67087 13.9009 4.55925 13.8932C2.94284 13.8973 1.35965 13.4344 0 12.5603C0.238127 12.5866 0.477591 12.599 0.717165 12.5974C2.05348 12.6011 3.35207 12.1545 4.4035 11.3297C3.78427 11.3178 3.18419 11.1129 2.68698 10.7436C2.18977 10.3743 1.82023 9.85905 1.62992 9.26966C1.81534 9.29909 2.0027 9.31452 2.19043 9.31584C2.45414 9.31498 2.7167 9.28091 2.97189 9.21443C2.29915 9.07885 1.69411 8.71448 1.25963 8.18326C0.825146 7.65204 0.588029 6.98676 0.588583 6.30049V6.26336C0.999957 6.49296 1.45979 6.62203 1.93055 6.64006C1.30003 6.21968 0.853785 5.57444 0.682967 4.83614C0.512149 4.09784 0.629645 3.32217 1.01146 2.66758C1.75712 3.5858 2.68746 4.33703 3.74215 4.87256C4.79683 5.4081 5.9523 5.71596 7.13362 5.7762C7.08695 5.55252 7.06328 5.32465 7.06299 5.09616C7.06338 4.50052 7.24273 3.91875 7.5778 3.42629C7.91286 2.93384 8.38817 2.55343 8.94207 2.33441C9.49598 2.11538 10.1029 2.06785 10.6842 2.19798C11.2654 2.32811 11.7941 2.6299 12.2018 3.06419C12.8667 2.93607 13.5043 2.69341 14.0861 2.34702C13.8646 3.03324 13.4004 3.61505 12.7804 3.98328C13.3693 3.91613 13.945 3.7614 14.4882 3.52419C14.0819 4.11756 13.5783 4.63801 12.9986 5.06356V5.05903Z" fill="#D1D5E0"/>
<path d="M61.4935 8.91572L61.8956 6.28974H59.3801V4.5919C59.3626 4.39607 59.3894 4.19882 59.4585 4.01475C59.5276 3.83068 59.6371 3.6645 59.7791 3.52851C59.9211 3.39252 60.0919 3.2902 60.2788 3.22912C60.4656 3.16805 60.6639 3.14979 60.8588 3.17568H62.0024V0.947218C61.331 0.83741 60.6525 0.776881 59.9723 0.766116C59.5041 0.730387 59.0337 0.798108 58.5946 0.964479C58.1555 1.13085 57.7584 1.39179 57.4314 1.72881C57.1044 2.06582 56.8555 2.47065 56.7025 2.91458C56.5495 3.35852 56.496 3.83069 56.5458 4.29761V6.28974H54.2422V8.91572H56.5458V15.2543H59.3801V8.91572H61.4935Z" fill="#D1D5E0"/>
<path d="M102.369 1.66211L101.414 3.99057V13.5198H104.809V15.2448H106.72L108.522 13.5227H111.284L114.997 9.97568V1.66211H102.369ZM113.724 9.3664L111.601 11.3951H108.205L106.403 13.1162V11.3941H103.534V2.87776H113.724V9.3664ZM111.602 5.20913V8.75324H110.329V5.20913H111.602ZM108.205 5.20913V8.75324H106.933V5.20913H108.205Z" fill="#D1D5E0"/>
<path d="M82.8515 4.28604C82.0712 4.28665 81.3087 4.50497 80.6603 4.9134C80.0118 5.32184 79.5066 5.90205 79.2083 6.58073C78.91 7.25942 78.8321 8.0061 78.9845 8.72643C79.1369 9.44676 79.5127 10.1084 80.0643 10.6278C80.616 11.1471 81.3189 11.5009 82.0841 11.6443C82.8493 11.7877 83.6424 11.7144 84.3634 11.4336C85.0843 11.1529 85.7007 10.6772 86.1345 10.0667C86.5684 9.45631 86.8003 8.73851 86.801 8.00403C86.8023 7.51543 86.701 7.03141 86.503 6.57977C86.305 6.12812 86.0141 5.71777 85.6471 5.37227C85.2801 5.02678 84.8442 4.75296 84.3644 4.56655C83.8846 4.38014 83.3705 4.28481 82.8515 4.28604ZM82.8515 10.4155C82.3442 10.4148 81.8485 10.2726 81.427 10.0068C81.0056 9.74099 80.6774 9.36349 80.4838 8.92206C80.2903 8.48063 80.2402 7.99509 80.3398 7.52684C80.4394 7.05859 80.6843 6.62865 81.0434 6.29141C81.4026 5.95417 81.8599 5.72476 82.3576 5.6322C82.8553 5.53963 83.3709 5.58807 83.8393 5.77139C84.3078 5.95471 84.7079 6.26467 84.9892 6.66207C85.2705 7.05948 85.4203 7.52649 85.4196 8.00403C85.4173 8.64398 85.1458 9.25701 84.6645 9.70894C84.1831 10.1609 83.5313 10.4149 82.8515 10.4155ZM87.879 4.13397C87.8788 4.30518 87.8247 4.47248 87.7235 4.61474C87.6223 4.757 87.4785 4.86782 87.3105 4.93319C87.1424 4.99857 86.9575 5.01557 86.7791 4.98204C86.6008 4.94852 86.437 4.86597 86.3084 4.74483C86.1799 4.6237 86.0924 4.46941 86.057 4.30148C86.0216 4.13354 86.0399 3.95949 86.1095 3.80134C86.1792 3.64318 86.2971 3.50801 86.4483 3.41291C86.5996 3.31781 86.7773 3.26705 86.9592 3.26705C87.0804 3.26651 87.2005 3.28854 87.3127 3.33189C87.4248 3.37524 87.5267 3.43904 87.6125 3.51962C87.6983 3.6002 87.7663 3.69597 87.8126 3.80141C87.8589 3.90685 87.8826 4.01987 87.8823 4.13397H87.879ZM90.4923 5.01329C90.5175 3.88715 90.0711 2.79686 89.2494 1.97806C88.3787 1.20787 87.223 0.788068 86.0284 0.808044C84.7581 0.739767 80.9492 0.739767 79.6789 0.808044C78.4831 0.785484 77.3255 1.20432 76.4535 1.97496C75.6332 2.79454 75.1869 3.8843 75.2106 5.01019C75.1381 6.20607 75.1381 9.79165 75.2106 10.9875C75.1854 12.1137 75.6318 13.204 76.4535 14.0228C77.3255 14.7939 78.4827 15.214 79.6789 15.1938C80.9492 15.2621 84.7581 15.2621 86.0284 15.1938C87.2247 15.2176 88.3829 14.7973 89.2527 14.0238C90.0716 13.2034 90.5176 12.1142 90.4956 10.9886C90.5681 9.79269 90.5681 6.21021 90.4956 5.01433L90.4923 5.01329ZM88.8505 12.2714C88.7199 12.583 88.5227 12.866 88.2711 13.1028C88.0194 13.3397 87.7188 13.5253 87.3878 13.6483C85.8964 13.9367 84.3706 14.0349 82.8515 13.94C81.3323 14.0337 79.8067 13.9359 78.3151 13.6493C77.9841 13.5264 77.6835 13.3407 77.4318 13.1039C77.1802 12.867 76.983 12.584 76.8524 12.2724C76.5473 10.869 76.4442 9.43332 76.5458 8.00403C76.4463 6.57397 76.5502 5.13779 76.8546 3.73361C76.9848 3.42115 77.182 3.13727 77.4338 2.89966C77.6857 2.66206 77.9868 2.47582 78.3184 2.35255C79.8087 2.06471 81.3334 1.96693 82.8515 2.06186C84.3706 1.96816 85.8962 2.06592 87.3878 2.35255C87.7188 2.47548 88.0194 2.66113 88.2711 2.89799C88.5227 3.13486 88.7199 3.41787 88.8505 3.72948C89.1584 5.13461 89.2637 6.57241 89.1637 8.00403C89.2643 9.43312 89.16 10.8685 88.8538 12.2714H88.8505Z" fill="#D1D5E0"/>
<path d="M34.6805 0.777397C35.4719 0.765625 36.2561 0.771964 37.0412 0.765625C37.0655 1.7075 37.4427 2.60589 38.0979 3.28295C38.8063 3.91928 39.7076 4.29965 40.6578 4.36322V6.79633C39.7816 6.775 38.919 6.57567 38.1223 6.21047C37.7826 6.04827 37.4557 5.8606 37.1444 5.64905C37.138 7.41208 37.1507 9.17421 37.1326 10.9309C37.0866 11.784 36.8044 12.6076 36.3176 13.3097C35.9165 13.8898 35.3846 14.3674 34.7649 14.704C34.1451 15.0407 33.4549 15.2268 32.7499 15.2475C31.8856 15.2867 31.029 15.0703 30.2869 14.6254C29.6761 14.2627 29.1587 13.7622 28.776 13.1637C28.3933 12.5653 28.1559 11.8856 28.0829 11.179C28.0712 10.8775 28.0648 10.575 28.0766 10.2798C28.1381 9.66076 28.3262 9.06091 28.629 8.51745C28.9318 7.97399 29.3429 7.49849 29.837 7.12039C30.331 6.74229 30.8975 6.46966 31.5012 6.31937C32.1049 6.16909 32.733 6.14435 33.3467 6.24669C33.3584 7.14043 33.3222 8.03326 33.3222 8.927C33.0646 8.83656 32.7917 8.79794 32.5192 8.81335C32.2466 8.82877 31.9798 8.89792 31.7341 9.01683C31.4883 9.13574 31.2685 9.30207 31.0873 9.50623C30.9061 9.7104 30.767 9.94838 30.6781 10.2065C30.5836 10.5214 30.5549 10.8525 30.5939 11.179C30.6725 11.6765 30.9311 12.1278 31.3206 12.4471C31.71 12.7665 32.2032 12.9316 32.7065 12.9113C33.0441 12.9014 33.3739 12.8073 33.666 12.6376C33.958 12.468 34.2031 12.228 34.3789 11.9396C34.5135 11.7502 34.5984 11.5301 34.6262 11.2994C34.6868 10.2192 34.6624 9.14433 34.6687 8.06405C34.675 5.63094 34.6624 3.20417 34.6805 0.777397Z" fill="#D1D5E0"/>
</svg>
