<svg width="26" height="20" viewBox="0 0 26 20" fill="none" xmlns="http://www.w3.org/2000/svg">
<path d="M18.6666 19.0967H6.42003C5.97738 19.0967 5.61719 18.7365 5.61719 18.2939C5.61719 14.6486 5.76474 12.3615 6.05116 11.4936C6.65871 9.67962 9.22347 8.5513 9.51423 8.42545C9.71385 8.33865 9.93517 8.33865 10.1348 8.42545C10.3344 8.5079 10.4907 8.66847 10.5688 8.86809C10.9507 9.82283 11.7188 10.4174 12.5694 10.4174C13.4156 10.4174 14.1533 9.84018 14.5396 8.86809C14.6177 8.66847 14.7783 8.5079 14.9735 8.42545C15.1732 8.34299 15.3945 8.34299 15.5941 8.42545C15.8849 8.54696 18.4496 9.67962 19.0572 11.4893C19.4304 12.6046 19.4087 14.3057 19.3913 15.5469C19.3913 15.7465 19.387 15.9331 19.387 16.0937C19.387 16.5363 19.0268 16.8965 18.5842 16.8965C18.1415 16.8965 17.7813 16.5363 17.7813 16.0937C17.7813 15.9288 17.7813 15.7378 17.7857 15.5295C17.7987 14.4663 17.8204 12.8563 17.534 12.0013C17.317 11.3504 16.4187 10.6734 15.6332 10.2351C14.9258 11.3547 13.8062 12.023 12.565 12.023C11.3239 12.023 10.1825 11.3547 9.47083 10.2351C8.68535 10.6734 7.78703 11.3504 7.56571 12.0013C7.48759 12.2357 7.24457 13.3076 7.21419 17.4954H18.6536C19.0963 17.4954 19.4564 17.8556 19.4564 18.2982C19.4564 18.7409 19.0963 19.1011 18.6536 19.1011L18.6666 19.0967Z" fill="#D1D5E0"/>
<path d="M20.0542 10.9251C19.6115 10.9251 19.2513 10.5649 19.2513 10.1222C19.2513 9.67958 19.6115 9.31938 20.0542 9.31938C21.1651 9.31938 22.0678 8.15635 22.0678 6.72859C22.0678 5.30083 21.1651 4.1378 20.0542 4.1378C19.4857 4.1378 18.9215 4.46761 18.583 4.99705C18.3357 5.38329 18.0015 6.20783 18.5353 7.3752C18.7219 7.77879 18.544 8.25182 18.1447 8.43843C17.7455 8.62503 17.2681 8.4471 17.0815 8.04785C16.4566 6.68953 16.5087 5.26612 17.2334 4.13346C17.8713 3.13533 18.9259 2.53645 20.0542 2.53645C22.0504 2.53645 23.6691 4.41554 23.6691 6.72859C23.6691 9.04164 22.0461 10.9207 20.0542 10.9207V10.9251Z" fill="#D1D5E0"/>
<path d="M24.2399 18.3326H21.0763C20.6336 18.3326 20.2734 17.9724 20.2734 17.5298C20.2734 17.0872 20.6336 16.727 21.0763 16.727H23.4154C23.3807 15.7809 23.3112 14.2577 23.1723 13.5243C23.0031 12.6173 22.5171 12.1052 22.1352 11.8361C21.775 11.5801 21.6882 11.081 21.9486 10.7208C22.2046 10.3606 22.7037 10.2738 23.0639 10.5342C23.5716 10.8944 24.4656 11.7276 24.7433 13.2335C24.9777 14.4703 25.0341 17.3953 25.0384 17.5168C25.0384 17.7338 24.9603 17.9377 24.8084 18.094C24.6565 18.2458 24.4526 18.3326 24.2356 18.3326H24.2399Z" fill="#D1D5E0"/>
<path d="M4.97433 10.9251C2.97808 10.9251 1.35938 9.04598 1.35938 6.73293C1.35938 4.41988 2.98242 2.53645 4.97433 2.53645C6.10265 2.53645 7.15719 3.13533 7.79513 4.13346C8.51986 5.26178 8.57193 6.68953 7.94702 8.04351C7.76041 8.4471 7.28305 8.62069 6.88379 8.43409C6.4802 8.24748 6.30662 7.77445 6.49322 7.37086C7.03134 6.20349 6.69285 5.37895 6.44549 4.99272C6.10699 4.46327 5.54283 4.13346 4.97433 4.13346C3.86337 4.13346 2.96072 5.29649 2.96072 6.72425C2.96072 8.15201 3.86337 9.31504 4.97433 9.31504C5.41698 9.31504 5.77717 9.67524 5.77717 10.1179C5.77717 10.5605 5.41698 10.9207 4.97433 10.9207V10.9251Z" fill="#D1D5E0"/>
<path d="M3.96647 18.3328H0.802842C0.585858 18.3328 0.381892 18.246 0.230003 18.0941C0.0781143 17.9423 0 17.734 0 17.517C0 17.3911 0.0607556 14.4705 0.295099 13.2294C0.55114 11.8493 1.30625 11.0335 1.89644 10.5952C2.24796 10.3305 2.75136 10.4042 3.01608 10.7557C3.2808 11.1116 3.20703 11.6107 2.85551 11.8754C2.49532 12.1444 2.03531 12.6478 1.8704 13.5201C1.73153 14.2579 1.65776 15.7811 1.62304 16.7271H3.96647C4.40912 16.7271 4.76931 17.0873 4.76931 17.53C4.76931 17.9726 4.40912 18.3328 3.96647 18.3328Z" fill="#D1D5E0"/>
<path d="M12.5378 7.26651C14.1292 7.26651 15.4194 5.8637 15.4194 4.13325C15.4194 2.40281 14.1292 1 12.5378 1C10.9464 1 9.65625 2.40281 9.65625 4.13325C9.65625 5.8637 10.9464 7.26651 12.5378 7.26651Z" stroke="#D1D5E0" stroke-width="1.56229" stroke-miterlimit="10"/>
</svg>
