<svg width="29" height="29" viewBox="0 0 29 29" fill="none" xmlns="http://www.w3.org/2000/svg">
<path fill-rule="evenodd" clip-rule="evenodd" d="M12.6644 14.8555C12.6644 15.7397 13.5486 16.6239 14.4328 16.6239C15.317 16.6239 16.2012 15.7397 16.2012 14.8555C16.2012 13.9713 15.317 13.0889 14.4328 13.0889C13.5486 13.0889 12.6644 13.9713 12.6644 14.8555ZM12.6644 7.78198C12.6644 8.66617 13.5486 9.55036 14.4328 9.55036C15.317 9.55036 16.2012 8.66617 16.2012 7.78198C16.2012 6.89779 15.317 6.01537 14.4328 6.01537C13.5486 6.01537 12.6644 6.89779 12.6644 7.78198ZM12.6644 21.929C12.6644 22.8132 13.5486 23.6974 14.4328 23.6974C15.317 23.6974 16.2012 22.8132 16.2012 21.929C16.2012 21.0448 15.317 20.1624 14.4328 20.1624C13.5486 20.1624 12.6644 21.0448 12.6644 21.929Z" fill="#9BA0AD"/>
</svg>
