<svg width="25" height="24" viewBox="0 0 25 24" fill="none" xmlns="http://www.w3.org/2000/svg">
<path d="M11.9948 14.5522C6.74468 14.5522 5.58399 9.51255 5.08893 7.35762C4.44411 4.55021 3.766 4.55021 3.44151 4.55021C3.01717 4.55021 2.67188 4.19391 2.67188 3.75606C2.67188 3.31821 3.01717 2.96191 3.44151 2.96191C5.39678 2.96191 6.12897 4.99665 6.58659 6.98845C7.29798 10.0921 8.45035 12.9639 11.9948 12.9639C15.5393 12.9639 16.6916 10.0921 17.403 6.98845C18.0603 4.12952 18.9714 2.96191 20.5439 2.96191C20.9683 2.96191 21.3136 3.31821 21.3136 3.75606C21.3136 4.19391 20.9683 4.55021 20.5439 4.55021C20.1695 4.55021 19.5413 4.55021 18.8965 7.35762C18.4015 9.50826 17.2449 14.5522 11.9906 14.5522H11.9948Z" fill="#D1D5E0"/>
<path d="M9.57361 17.3855C9.25744 17.6645 7.85962 18.0337 7.98442 17.6216C8.13835 17.1194 9.66097 15.016 9.83986 14.6339C10.1893 13.887 10.6428 13.1572 11.9948 13.1572C13.3469 13.1572 13.8003 13.887 14.1498 14.6339C14.3287 15.016 15.8596 17.1666 16.0052 17.613C16.1384 18.0294 14.9985 17.9736 14.5575 17.613C14.4202 17.5014 13.3344 15.9303 13.1139 15.4624C12.9017 15.0117 12.7769 14.7412 11.9948 14.7412C11.2127 14.7412 11.0879 15.0117 10.8799 15.4581C10.6594 15.9303 9.70257 17.2911 9.57361 17.3855Z" fill="#D1D5E0"/>
<path d="M18.148 14.0155C17.8444 14.0155 17.5573 13.8266 17.4367 13.5219C17.1704 12.8479 17.3701 11.8048 18.7929 11.0965C21.7133 9.64556 22.5869 8.10449 22.4497 7.22878C22.3956 6.88966 22.2 6.71366 22.0378 6.69219C21.8007 6.66215 21.5885 6.73083 21.393 6.90254C21.0934 7.16868 20.9562 7.56361 20.9562 7.70956C20.9478 8.13883 20.6025 8.48224 20.1907 8.48224H20.174C19.7497 8.47366 19.4127 8.10878 19.4252 7.67093C19.4419 6.99698 19.8329 6.20283 20.3987 5.70058C20.927 5.23268 21.5635 5.03093 22.2375 5.12107C23.1194 5.23698 23.8142 5.97961 23.9723 6.97551C24.1179 7.89844 23.9723 10.2852 19.4668 12.526C19.0674 12.7234 18.9177 12.9123 18.8844 12.9853C19.005 13.3759 18.8178 13.8052 18.4393 13.9597C18.3436 13.9983 18.2479 14.0198 18.1522 14.0198L18.148 14.0155Z" fill="#D1D5E0"/>
<path d="M5.84901 14.0154C5.75332 14.0154 5.65764 13.9982 5.56195 13.9553C5.18754 13.8008 4.99617 13.3715 5.11682 12.9809C5.08354 12.9079 4.93793 12.719 4.53439 12.5216C0.0330936 10.2808 -0.112512 7.89404 0.0330935 6.97112C0.19118 5.97521 0.885928 5.23258 1.76788 5.11668C2.44599 5.02653 3.07834 5.22829 3.60668 5.69619C4.17246 6.19843 4.56352 6.98829 4.58016 7.66653C4.58848 8.10439 4.25566 8.46926 3.83133 8.47785C3.40699 8.46926 3.05753 8.14302 3.04505 7.70517C3.04505 7.55921 2.90777 7.16429 2.60824 6.89814C2.41271 6.72643 2.2047 6.65775 1.96341 6.6878C1.80116 6.70926 1.60564 6.88526 1.55155 7.22439C1.41427 8.10009 2.2879 9.63687 5.20834 11.0921C6.63528 11.8004 6.83081 12.8435 6.56455 13.5175C6.44391 13.8265 6.15686 14.0111 5.85317 14.0111L5.84901 14.0154Z" fill="#D1D5E0"/>
<path d="M20.5518 2.5839H3.44932C3.02498 2.5839 2.67969 2.22761 2.67969 1.78975C2.67969 1.3519 3.02498 0.995605 3.44932 0.995605H20.5518C20.9761 0.995605 21.3214 1.3519 21.3214 1.78975C21.3214 2.22761 20.9761 2.5839 20.5518 2.5839Z" fill="#D1D5E0"/>
<path d="M16.6236 23.0001C16.2991 23.0001 15.9954 22.7854 15.8914 22.4463L14.7182 18.6559H9.2892L8.11604 22.4463C7.98707 22.8627 7.55857 23.0945 7.15504 22.9657C6.7515 22.8327 6.52685 22.3905 6.65166 21.9741L7.99123 17.6299C8.09108 17.2994 8.38645 17.0762 8.72342 17.0762H15.2798C15.6168 17.0762 15.9122 17.2994 16.012 17.6299L17.3516 21.9741C17.4806 22.3905 17.2559 22.837 16.8482 22.9657C16.7733 22.9915 16.6943 23.0044 16.6194 23.0044L16.6236 23.0001Z" fill="#D1D5E0"/>
<path d="M16.6187 22.9999H7.37901C6.95467 22.9999 6.60938 22.6436 6.60938 22.2058C6.60938 21.7679 6.95467 21.4116 7.37901 21.4116H16.6187C17.0431 21.4116 17.3884 21.7679 17.3884 22.2058C17.3884 22.6436 17.0431 22.9999 16.6187 22.9999Z" fill="#D1D5E0"/>
</svg>
